<?xml version="1.0" encoding="UTF-8"?>
<svg width="47px" height="44px" viewBox="0 0 47 44" version="1.1" xmlns="http://www.w3.org/2000/svg" xmlns:xlink="http://www.w3.org/1999/xlink">
    <g id="Boosted" stroke="none" stroke-width="1" fill="none" fill-rule="evenodd">
        <g id="1.0---Dashboard" transform="translate(-50.000000, -47.000000)">
            <g id="Group-94" transform="translate(50.000000, 47.000000)">
                <path d="M12.0208947,38.4051094 C11.6964699,38.9368453 11.3013372,39.4420151 10.8388239,39.9040151 C8.87397434,41.8645057 6.14381504,42.5925811 3.60747876,42.0919774 C3.10586814,39.5607321 3.83499204,36.8360528 5.79984159,34.8751472 C6.26027522,34.4160528 6.76146991,34.0217132 7.29469115,33.6979396 C6.50650531,35.3222038 6.2656823,37.1482038 6.56889469,38.8953358 C6.59010708,39.0177887 6.68826637,39.1153358 6.81054956,39.1365057 C8.5616115,39.4386943 10.3933637,39.1962792 12.0208947,38.4051094" id="Fill-2" fill="#FFDCA1"></path>
                <path d="M12.2953664,38.0426906 C10.6981982,38.8193321 8.90096814,39.0571811 7.1827646,38.7608038 C7.06256106,38.7400491 6.96648142,38.6437472 6.94526903,38.5237849 C6.64829558,36.8094453 6.88412743,35.0178981 7.65775575,33.4239358 C7.13451681,33.741483 6.64247257,34.1283509 6.19118938,34.5791434 C6.06433097,34.7057472 5.94329558,34.8356717 5.82725133,34.9685019 C5.69540177,35.0838981 5.56521593,35.2034453 5.43960531,35.3292189 C3.51177345,37.2531811 2.79595929,39.9268038 3.28800354,42.4107283 C5.77692389,42.9017849 8.45592389,42.1878226 10.3837558,40.2638604 C10.5093664,40.1385019 10.6283221,40.0094075 10.7439504,39.8782377 C10.8774637,39.7615962 11.0080655,39.6408038 11.1353398,39.5137849 C11.5895345,39.0605019 11.9767646,38.5648792 12.2953664,38.0426906" id="Fill-4" fill="#FFDCA1"></path>
                <path d="M5.63633982,35.0060264 C5.06568496,35.3534604 4.52872035,35.7764415 4.0337646,36.2704038 C3.9368531,36.3667057 3.84493274,36.4630075 3.75259646,36.5593094 C2.81675575,38.4894981 2.5568,40.662517 2.96815398,42.7309321 C3.59911858,42.8546302 4.24006549,42.9164792 4.88142832,42.9164792 C6.34591504,42.9164792 7.8108177,42.5935358 9.15634867,41.9439132 C9.25284425,41.8517623 9.34933982,41.7596113 9.44126018,41.6674604 C9.93663186,41.1693472 10.3604637,40.6288943 10.7085965,40.0598 C10.6878,40.0697623 10.6674195,40.0797245 10.646623,40.0896868 C10.4095434,40.3109321 10.1620655,40.5155736 9.90626903,40.7031962 C8.44386195,41.9422528 6.63498584,42.5607434 4.82486195,42.5607434 C4.30994159,42.5607434 3.79502124,42.510517 3.28800354,42.4104792 C2.83547257,40.1258 3.40487965,37.6800642 4.99955221,35.8054981 C5.18339292,35.5556113 5.38345487,35.3140264 5.60015398,35.0819887 C5.6118,35.0566679 5.62427788,35.0313472 5.63633982,35.0060264" id="Fill-6" fill="#FFE5B9"></path>
                <path d="M5.59998761,35.0819887 C5.3832885,35.3140264 5.18322655,35.5556113 4.99980177,35.805083 C5.13830619,35.6419509 5.2851292,35.4829698 5.43943894,35.3289698 C5.46772212,35.3011585 5.49600531,35.2733472 5.52470442,35.2455358 C5.54924425,35.1911585 5.5742,35.136366 5.59998761,35.0819887 M10.6464566,40.0896868 C10.5907221,40.1162528 10.5345717,40.1419887 10.4784212,40.1673094 C10.4472265,40.1996868 10.4156159,40.2316491 10.3840053,40.2636113 C10.2292796,40.4180264 10.0699788,40.5645547 9.90610265,40.7031962 C10.1618991,40.5155736 10.409377,40.3109321 10.6464566,40.0896868" id="Fill-8" fill="#FFC675"></path>
                <path d="M5.52457965,35.2457019 C5.49588053,35.2730981 5.46759735,35.3009094 5.43973009,35.3291358 C5.28500442,35.4831358 5.13859735,35.642117 4.99967699,35.8052491 C3.4045885,37.6802302 2.83559735,40.1255509 3.28812832,42.4106453 C3.79514602,42.510683 4.31006637,42.5604943 4.82498673,42.5604943 C6.63469469,42.5604943 8.4435708,41.9420038 9.90639381,40.7029472 C10.069854,40.5643057 10.2291549,40.4177774 10.3838805,40.2637774 C10.4159071,40.2318151 10.4475177,40.1998528 10.4787124,40.1674755 C9.2795885,40.7070981 7.98438496,40.9764943 6.69167699,40.9764943 C6.16511062,40.9764943 5.63896018,40.9320792 5.12029646,40.842834 C4.98595133,40.8220792 4.88113717,40.7129094 4.86034071,40.5829849 C4.54756195,38.792683 4.7705,36.9264189 5.52457965,35.2457019" id="Fill-10" fill="#FFC675"></path>
                <path d="M4.81853982,43.7486604 C4.14806195,43.7486604 3.47259292,43.6834906 2.8000354,43.5506604 C2.46978761,43.4854906 2.21107965,43.227717 2.14577876,42.8973019 C1.47488496,39.5126226 2.53051327,36.0386981 4.96910619,33.605 C5.55723009,33.0176415 6.20524779,32.5079057 6.89485841,32.0886604 C7.28666372,31.849566 7.79867257,31.9736792 8.03783186,32.3659434 C8.27657522,32.7573774 8.15221239,33.2683585 7.75999115,33.5066226 C7.18351327,33.8573774 6.64030973,34.2849245 6.14535398,34.7788868 C4.23457522,36.6858302 3.33658407,39.3553019 3.68513274,42.0139811 C6.34957522,42.3630755 9.02441593,41.4660566 10.9356106,39.5586981 C11.4259912,39.069717 11.855646,38.5246981 12.2129292,37.9394151 C12.4520885,37.547566 12.9636814,37.4226226 13.3563186,37.6621321 C13.7485398,37.9003962 13.8729027,38.4113774 13.6337434,38.8028113 C13.2078319,39.5014151 12.695823,40.1502075 12.1118584,40.7325849 C10.1565752,42.6847736 7.53081416,43.7486604 4.81853982,43.7486604" id="Fill-12" fill="#2D3666"></path>
                <path d="M23.867931,39.7180113 C22.3327363,41.2501245 20.4947451,42.303634 18.5473646,42.8731434 C18.4092761,42.9113321 18.2711876,42.9495208 18.1330991,42.9877094 C18.5003646,42.5269547 18.821046,42.0425396 19.0947274,41.5348792 C19.2153469,41.3206906 19.3243204,41.1002755 19.4237274,40.8773698 C20.4356832,38.6346151 20.5737717,36.1017094 19.8475593,33.7800868 C22.5972673,32.878917 25.1710372,31.5846528 27.5031522,29.9674453 C27.6707717,32.2479736 27.2120018,34.5666906 26.129754,36.6446528 C25.5503646,37.7512943 24.7971168,38.7902755 23.867931,39.7180113" id="Fill-14" fill="#78D5DD"></path>
                <path d="M11.9360451,25.8844528 L11.8391336,25.8578868 C8.76832832,24.930566 5.34231947,25.5087925 2.70990354,27.5958868 C2.79516903,27.2700377 2.89249646,26.9441887 3.00396549,26.6270566 C3.03931947,26.5270189 3.07467345,26.4273962 3.11293894,26.3306792 C3.71853186,24.7047547 4.67724867,23.1784528 5.98617788,21.8721509 C8.5187708,19.3450566 11.8682487,18.1267547 15.1827885,18.2176604 C15.3741159,18.220566 15.5712664,18.2296981 15.7621779,18.2442264 C15.3920009,18.7726415 15.0417885,19.3155849 14.7094611,19.8701509 C13.8476558,21.2939245 13.1035584,22.7936604 12.488815,24.3581509 L12.477169,24.3813962 C12.2858416,24.877434 12.1036646,25.3767925 11.9360451,25.8844528" id="Fill-16" fill="#78D5DD"></path>
                <path d="M26.8075938,35.0927811 C26.618346,35.6216113 26.3924965,36.1404792 26.1296292,36.6448189 C25.5502398,37.7514604 24.797408,38.7904415 23.8678062,39.7181774 C22.4261956,41.1568943 20.7175584,42.1734604 18.9020274,42.7637245 C18.8546115,42.8683283 18.8051159,42.9716868 18.7535407,43.0750453 C20.7005053,42.5055358 22.5384965,41.4520264 24.0736912,39.9199132 C25.0032929,38.9921774 25.7561248,37.9531962 26.3355142,36.8465547 C26.536408,36.2716491 26.6936292,35.6855358 26.8075938,35.0927811 M20.0212929,39.1395358 C19.8628239,39.2184038 19.7026912,39.2935358 19.5417265,39.3649321 C19.491815,39.3914981 19.4414876,39.4118377 19.3886646,39.4354981 C19.3387531,39.6318377 19.2801071,39.8314981 19.2123106,40.0224415 C19.0650717,40.4802906 18.8828947,40.926517 18.6653637,41.3607057 C18.7955496,41.322517 18.9240717,41.2768566 19.0538416,41.2341019 C18.9615053,41.4603283 18.8608504,41.6836491 18.7506292,41.9036491 C18.8063637,41.8874604 18.8616823,41.8679509 18.9174168,41.8492717 C18.9785584,41.7454981 19.0376204,41.6408943 19.0946027,41.5346302 C19.2152221,41.3204415 19.3241956,41.1004415 19.4240186,40.8771208 C19.6781513,40.3138377 19.8773814,39.7318755 20.0212929,39.1395358" id="Fill-18" fill="#9AE0E6"></path>
                <path d="M26.9364903,30.4974792 C26.8391628,30.5618189 26.7414195,30.6253283 26.6432602,30.6884226 C26.1458088,32.9311774 25.0223841,35.0572906 23.2796407,36.7965358 C22.3001274,37.774083 21.1970832,38.5561208 20.0212513,39.1397434 C19.8773398,39.7316679 19.6781097,40.3136302 19.423977,40.8773283 C19.324154,41.1006491 19.2151805,41.3206491 19.0945611,41.5348377 C19.0375788,41.6406868 18.9785168,41.7457057 18.9173752,41.8494792 C18.9394195,41.8420075 18.9618796,41.8345358 18.9843398,41.8274792 C18.8882602,42.0657434 18.7838619,42.3006868 18.6682336,42.5318943 C18.7988354,42.4937057 18.9273575,42.4476302 19.0567115,42.4052906 C19.0076319,42.5256679 18.9560566,42.6452151 18.9019858,42.763517 C20.7175168,42.1736679 22.426154,41.1566868 23.8677646,39.7179698 C24.7973664,38.790234 25.5501982,37.7512528 26.1295876,36.6446113 C26.3924549,36.1402717 26.6183044,35.6214038 26.8075522,35.0925736 C26.9963841,34.1092151 27.0658442,33.1075925 27.0171805,32.1097057 C27.0392248,31.6207245 27.0354814,31.1304981 27.0001274,30.641517 L26.9423133,30.6801208 C26.9406496,30.6191019 26.9385699,30.5584981 26.9364903,30.4974792" id="Fill-20" fill="#A8EFF3"></path>
                <path d="M15.1965142,18.0898113 C13.752408,18.0898113 12.3074699,18.3380377 10.9315761,18.8344906 C12.1984965,18.4202264 13.5186558,18.2130943 14.8375673,18.2130943 C14.9527796,18.2130943 15.067992,18.2147547 15.1827885,18.2176604 C15.273877,18.2193208 15.3662133,18.2218113 15.4585496,18.2259623 C15.4860009,18.1819623 15.5138681,18.1383774 15.5417354,18.0943774 C15.4269389,18.0914717 15.3113106,18.0898113 15.1965142,18.0898113" id="Fill-22" fill="#9AE0E6"></path>
                <path d="M14.8376504,18.2130113 C13.5187389,18.2130113 12.1985796,18.4201434 10.9316593,18.8344075 C9.25754425,19.4383698 7.68657965,20.4096906 6.34520796,21.7487849 C5.03627876,23.0550868 4.07756195,24.5813887 3.4715531,26.2073132 C3.53477434,26.1612377 3.59924336,26.1188981 3.66329646,26.0748981 C3.49734071,26.4190113 3.34511062,26.7681057 3.21284513,27.1230113 C3.76561504,26.7182943 4.35124336,26.3804075 4.95392478,26.1018792 C5.31578319,25.6112377 5.72173009,25.1421811 6.16843805,24.6955396 C8.35705752,22.5117283 11.1533496,21.3042189 14.0145265,21.075917 C14.3971814,20.3698415 14.8077035,19.6803698 15.2444292,19.0095774 C15.2186416,19.0091623 15.192854,19.0091623 15.1674823,19.0091623 L15.0880398,19.0091623 C15.0635,19.0095774 15.0385442,19.0095774 15.0135885,19.0095774 L14.9828097,19.0095774 C15.1379513,18.7455774 15.2960044,18.4840679 15.4582168,18.2258792 C15.3658805,18.2221434 15.2739602,18.2192377 15.1828717,18.2175774 C15.0676593,18.2146717 14.9528628,18.2130113 14.8376504,18.2130113" id="Fill-24" fill="#48BBC7"></path>
                <path d="M18.1315186,43.8163623 C17.8540938,43.8163623 17.5891469,43.6777208 17.4331735,43.4373811 C17.2389345,43.1380981 17.2580673,42.7483245 17.4805894,42.4693811 C19.5032531,39.9327396 20.0289876,36.475834 18.851908,33.4485509 C18.6859522,33.0210038 18.8980761,32.5403245 19.3264832,32.3747019 C19.7548903,32.2082491 20.2369522,32.4207774 20.402908,32.8479094 C21.4876513,35.6381736 21.3474832,38.7368528 20.0988637,41.3872302 C21.2709522,40.8210415 22.3477929,40.0593434 23.2790584,39.1299472 C25.9339345,36.4799849 27.1580142,32.6880981 26.5528372,28.9858717 C26.4788018,28.5334189 26.7865894,28.1067019 27.2399522,28.0332302 C27.6928991,27.9597585 28.1213062,28.2665132 28.1949257,28.7185509 C28.8857841,32.9462868 27.487846,37.2773811 24.4557221,40.303834 C22.7616425,41.9940981 20.6462265,43.1999472 18.3382354,43.7906264 C18.2696071,43.8076453 18.2001469,43.8163623 18.1315186,43.8163623" id="Fill-26" fill="#2D3666"></path>
                <path d="M2.71144248,28.4274868 C2.55463717,28.4274868 2.39741593,28.3834868 2.25932743,28.2942415 C1.95902655,28.1003925 1.81677876,27.7367698 1.90578761,27.3914113 C2.49723894,25.0876377 3.70509735,22.9760528 5.39917699,21.2857887 C8.43130088,18.2593358 12.7715221,16.865034 17.0077611,17.5536755 C17.4611239,17.6275623 17.7689115,18.0542792 17.6948761,18.5067321 C17.6208407,18.9596 17.1920177,19.2667698 16.7399027,19.1924679 C13.0298142,18.5885057 9.23030088,19.8101283 6.57542478,22.4596755 C5.64415929,23.3890717 4.88051327,24.4637509 4.31318584,25.634317 C6.96889381,24.3869585 10.0738053,24.2470717 12.8696814,25.3300528 C13.2980885,25.4960906 13.5106283,25.9767698 13.3442566,26.404317 C13.1783009,26.8318642 12.6962389,27.0452226 12.2678319,26.8779396 C9.23529204,25.7036377 5.77143363,26.2279019 3.22969027,28.2465057 C3.07870796,28.366883 2.89528319,28.4274868 2.71144248,28.4274868" id="Fill-28" fill="#2D3666"></path>
                <path d="M31.6353673,26.5244038 C28.300031,29.8530453 24.1827478,32.4004792 19.5825708,33.8682528 L11.8475354,26.1487434 C15.7210841,14.0881774 27.0472522,5.35583774 40.420208,5.35293208 C40.420208,13.6182906 37.0644912,21.1061774 31.6353673,26.5244038" id="Fill-30" fill="#E8F3FF"></path>
                <path d="M38.9850858,14.6439057 L38.9934044,14.6522075 C37.5251743,19.239 34.971369,23.348434 31.6356168,26.6774906 C31.4359708,26.8808868 31.2238469,27.0718302 31.0200416,27.2669245 L30.982608,27.2959811 C30.3545549,27.889566 29.701546,28.4540943 29.0235814,28.989566 L28.9362363,29.0559811 C27.8132274,29.9401321 26.6236699,30.7412642 25.3758823,31.4593774 C25.3384487,31.4801321 25.2968558,31.5008868 25.2594221,31.5257925 C24.5065903,31.9533396 23.7371212,32.3476792 22.9426965,32.7129623 L22.9011035,32.733717 C22.3770327,32.9703208 21.8404841,33.1986226 21.2997761,33.4061698 L21.2665018,33.4186226 C20.0270327,33.9001321 18.7459708,34.2986226 17.4357938,34.6140943 C16.9449973,34.7344717 16.4458823,34.8382453 15.9467673,34.933717 L12.6858823,31.6793774 C14.0875637,31.5756038 15.4559708,31.3763585 16.7952628,31.0857925 C18.3300416,30.749566 19.8232274,30.3012642 21.2665018,29.7408868 L21.2997761,29.728434 C21.8404841,29.5167358 22.3770327,29.2925849 22.9011035,29.0518302 L22.9426965,29.0310755 C23.7371212,28.6699434 24.5065903,28.2714528 25.2594221,27.8439057 C25.2968558,27.8231509 25.3384487,27.8023962 25.3758823,27.7774906 C26.6236699,27.0635283 27.8132274,26.2582453 28.9362363,25.3740943 L29.0235814,25.3076792 C29.701546,24.7722075 30.3545549,24.2076792 30.982608,23.6182453 L31.0200416,23.5850377 C31.2238469,23.3899434 31.4359708,23.199 31.6356168,22.9997547 C34.971369,19.6706981 37.5251743,15.5612642 38.9934044,10.9703208 L38.9850858,10.9620189 C39.5507496,9.21032075 39.9583602,7.38390566 40.1871212,5.50767925 C40.2619885,5.5035283 40.341015,5.5035283 40.4158823,5.5035283 C40.4158823,8.69145283 39.912608,11.759 38.9850858,14.6439057" id="Fill-32" fill="#FFFFFF"></path>
                <path d="M36.9701168,9.11704906 C26.1992142,10.6130491 17.2130637,17.6812755 13.0350549,27.3085585 L11.9744354,26.2500679 C15.1899841,16.231766 23.4224708,8.46244528 33.7246212,5.87806792 L36.9701168,9.11704906" id="Fill-34" fill="#B8DAF2"></path>
                <path d="M39.5791575,12.4091208 L39.1495027,12.3036868 L33.4558478,6.62104528 L33.3497858,6.19266792 C35.6174319,5.64349811 37.9849009,5.35293208 40.4201664,5.35293208 C40.4201664,7.78330943 40.1290159,10.1464415 39.5791575,12.4091208" id="Fill-36" fill="#78D5DD"></path>
                <path d="M35.2415566,5.79841132 C35.2369814,5.79985536 35.2324062,5.80129941 35.227831,5.80274345 C35.2324062,5.80129941 35.2369814,5.79985536 35.2415566,5.79841132 M35.1987159,5.81140771 C34.7802912,5.93920554 34.3647779,6.08144381 33.9521761,6.23812251 L33.9521761,6.23884453 C34.3651938,6.08144381 34.7798752,5.93920554 35.1987159,5.81140771 M40.409477,6.41646186 C40.4078133,6.53342937 40.4057336,6.6511189 40.403654,6.76808641 C40.403654,6.77819471 40.4032381,6.78830302 40.4032381,6.79841132 C40.4057336,6.67133551 40.4078133,6.5442597 40.409477,6.41646186" id="Fill-38" fill="#9AE0E6"></path>
                <path d="M36.3497168,5.62730943 C35.978292,5.6962553 35.6089469,5.77488778 35.2416814,5.86206727 C35.2371062,5.86320687 35.232531,5.86434647 35.2279558,5.86548607 C35.2179735,5.86776527 35.2084071,5.87004448 35.1988407,5.87232368 C34.78,5.97317838 34.3649027,6.08542909 33.9523009,6.21021542 L33.9527168,6.21192482 C34.7409027,5.97374818 35.5399027,5.77830658 36.3497168,5.62730943 M40.4120973,6.22389063 C40.4116814,6.23471684 40.4116814,6.24611285 40.4112655,6.25693906 C40.4116814,6.24611285 40.4116814,6.23471684 40.4120973,6.22389063 M40.4112655,6.26833507 C40.4091858,6.38229519 40.4066903,6.4956855 40.4041947,6.60964562 C40.4037788,6.61534362 40.4037788,6.62161143 40.4037788,6.62730943 C40.4058584,6.53557154 40.4079381,6.44212425 40.4096018,6.35038636 C40.4100177,6.32303593 40.4108496,6.2956855 40.4112655,6.26833507" id="Fill-40" fill="#8CD5E6"></path>
                <path d="M40.4040699,6.34280755 C40.385769,6.8965434 40.3529106,7.4465434 40.3046628,7.99239245 C40.3524947,7.45692075 40.3853531,6.91688302 40.4032381,6.37310943 C40.4032381,6.36729811 40.403654,6.36190189 40.403654,6.35609057 C40.403654,6.35152453 40.4040699,6.34695849 40.4040699,6.34280755" id="Fill-42" fill="#9AE0E6"></path>
                <path d="M40.42,5.35401132 C39.039115,5.35401132 37.6806903,5.44699245 36.3497168,5.6271434 C35.5399027,5.73755849 34.7409027,5.87993585 33.9527168,6.05303019 L33.9730973,6.12608679 L36.9719469,9.11891698 C38.0367257,8.97363396 39.1181416,8.87401132 40.2161947,8.84080377 C40.249885,8.55936981 40.2794159,8.27669057 40.3047876,7.99235094 C40.3526195,7.44650189 40.3858938,6.89650189 40.4041947,6.34276604 C40.4066903,6.26016226 40.4091858,6.1771434 40.4112655,6.09453962 L40.4112655,6.08582264 C40.4116814,6.07793585 40.4116814,6.07004906 40.4120973,6.06216226 C40.4175044,5.82638868 40.42,5.59061509 40.42,5.35401132" id="Fill-44" fill="#48BBC7"></path>
                <polygon id="Fill-46" fill="#E8F3FF" points="16.3035097 35.2916528 10.4214389 29.4213887 12.1862265 26.4862566 19.2445451 33.5304075"></polygon>
                <path d="M31.596977,20.6157434 C29.8105611,22.3989887 26.9136142,22.3989887 25.1267823,20.6157434 C23.3399504,18.8329132 23.3399504,15.9417811 25.1267823,14.1585358 C26.9136142,12.3752906 29.8105611,12.3752906 31.596977,14.1585358 C33.3838088,15.9417811 33.3838088,18.8329132 31.596977,20.6157434" id="Fill-48" fill="#78D5DD"></path>
                <path d="M28.0065929,13.1332943 C27.007115,13.1332943 26.0080531,13.5143509 25.244823,14.2760491 C23.7216903,15.7994453 23.7216903,18.2651057 25.244823,19.788917 C25.4860619,20.0296717 25.7522566,20.2318226 26.0363363,20.3978604 C25.1558142,18.9068415 25.3583717,16.950917 26.643177,15.6720113 C27.4047434,14.9098981 28.4038053,14.5292566 29.4036991,14.5296717 C30.0870708,14.5296717 30.7708584,14.7073321 31.3789469,15.0626528 C31.2121593,14.7828792 31.0100177,14.5168038 30.7683628,14.2760491 C30.0051327,13.5143509 29.0060708,13.1332943 28.0065929,13.1332943" id="Fill-50" fill="#48BBC7"></path>
                <path d="M39.1513743,13.1330453 C38.9384186,13.1330453 38.7254628,13.0521019 38.5632504,12.8898 L32.6279407,6.96640377 C32.3031,6.64221509 32.3031,6.11670566 32.6279407,5.79251698 C32.9523655,5.4683283 33.4793478,5.4683283 33.8041885,5.79251698 L39.7394982,11.7159132 C40.0643389,12.0401019 40.0643389,12.5656113 39.7394982,12.8898 C39.5768699,13.0521019 39.3643301,13.1330453 39.1513743,13.1330453" id="Fill-52" fill="#2D3666"></path>
                <path d="M12.8003876,25.9247585 L19.8083788,32.9190981 C24.0105115,31.4974 27.8873876,29.090683 31.0476177,25.9367962 C35.6760779,21.3176264 38.6387416,15.2124189 39.3899097,8.74524906 C39.4893168,7.91672075 39.5517062,7.06328679 39.576246,6.19615472 C37.7395027,6.2488717 35.9114938,6.47219245 34.130485,6.86238113 C24.1976796,9.04204151 16.0679274,16.3236264 12.8003876,25.9247585 M19.5821133,34.6973623 C19.3649982,34.6973623 19.1520425,34.6122679 18.9939894,34.454117 L11.2618655,26.7370981 C11.041423,26.5175132 10.9628124,26.1929094 11.0576442,25.8969472 C14.3946442,15.4980038 23.0987947,7.58298491 33.7736177,5.24060755 C35.9443522,4.76490943 38.1803876,4.52373962 40.4201664,4.52373962 C40.8793522,4.52373962 41.2520248,4.89566415 41.2520248,5.3539283 C41.2520248,6.57555094 41.1813168,7.78181509 41.0419805,8.9399283 C40.2483876,15.7736264 37.1164407,22.2283434 32.2238655,27.110683 C28.7575115,30.5704943 24.4730248,33.1801925 19.8349982,34.6579283 C19.7518124,34.6844943 19.6665469,34.6973623 19.5821133,34.6973623" id="Fill-54" fill="#2D3666"></path>
                <path d="M29.2441903,17.3368717 C29.0312345,17.3368717 28.8182788,17.2559283 28.6560664,17.0936264 C28.4934381,16.9317396 28.2301549,16.9313245 28.0675265,17.0936264 C27.7431018,17.4178151 27.2161195,17.4178151 26.8912788,17.0936264 C26.5664381,16.7694377 26.5664381,16.2439283 26.8912788,15.9197396 C27.7023407,15.1103057 29.0216681,15.1103057 29.8323142,15.9197396 C30.1571549,16.2439283 30.1571549,16.7694377 29.8323142,17.0936264 C29.6701018,17.2559283 29.457146,17.3368717 29.2441903,17.3368717" id="Fill-56" fill="#FFFFFF"></path>
                <polygon id="Fill-58" fill="#B8DAF2" points="13.1114611 27.7785283 11.4756115 30.4911698 10.5838593 29.598717 12.2592221 26.822566"></polygon>
                <path d="M11.4705372,29.2925434 L16.4338204,34.2458642 L17.9032982,33.3658642 L12.3518912,27.8256 L11.4705372,29.2925434 Z M16.3048823,36.1208453 C16.089431,36.1208453 15.8764752,36.0378264 15.7163425,35.8776 L9.83510354,30.0085811 C9.56516549,29.7391849 9.51359027,29.3211849 9.70990885,28.9945057 L11.4730327,26.0597887 C11.6048823,25.8406189 11.8307319,25.6940906 12.0848646,25.6625434 C12.3402451,25.6318264 12.5939619,25.7189962 12.7748912,25.8995623 L19.8332097,32.9437132 C20.0145549,33.1242792 20.1019,33.378317 20.0707053,33.6319396 C20.0395106,33.8855623 19.8926876,34.1109585 19.673077,34.2425434 L16.7320416,36.0029585 C16.5993602,36.0822415 16.4517053,36.1208453 16.3048823,36.1208453 L16.3048823,36.1208453 Z" id="Fill-60" fill="#2D3666"></path>
                <path d="M21.009208,24.7250943 L21.009208,24.7250943 C20.3690929,24.0862642 19.3238628,24.1124151 18.7166062,24.7823774 L9.21470354,35.2630943 C8.90234071,35.6080377 8.91565044,36.1368679 9.24506637,36.4656226 C9.5744823,36.7943774 10.1043761,36.8076604 10.4500133,36.4959245 L20.9518097,27.0130943 C21.6231195,26.4070566 21.649323,25.3639245 21.009208,24.7250943" id="Fill-62" fill="#78D5DD"></path>
                <path d="M19.8906912,25.0925358 C19.8840363,25.0925358 19.8777973,25.0929509 19.8711425,25.0929509 C19.6640097,25.0983472 19.4730982,25.1859321 19.3337619,25.339517 L9.83144336,35.820234 C9.81646991,35.8368377 9.81730177,35.8629887 9.83352301,35.8791774 C9.84891239,35.8949509 9.8747,35.895366 9.8917531,35.8804226 L20.3939655,26.3975925 C20.5478593,26.2585358 20.6356204,26.0680075 20.6406115,25.8608755 C20.6456027,25.6537434 20.5678239,25.4586491 20.4210009,25.3121208 C20.2787531,25.1701585 20.091169,25.0925358 19.8906912,25.0925358 M9.86388584,37.5524226 C9.42632832,37.5524226 8.98960265,37.3847245 8.65685929,37.0530642 C8.01341681,36.4104981 7.9876292,35.3794038 8.59779735,34.7061208 L18.0997,24.2254038 C18.5410009,23.738083 19.1715496,23.4495925 19.8295496,23.4329887 C20.4950363,23.4184604 21.1318239,23.6733283 21.5976646,24.138234 C22.0626735,24.6023094 22.3201336,25.2452906 22.3039124,25.9015547 C22.2876912,26.558234 21.9982044,27.1879321 21.5103195,27.6287623 L11.0081071,37.1115925 C10.6820186,37.4058943 10.2723283,37.5524226 9.86388584,37.5524226" id="Fill-64" fill="#2D3666"></path>
                <path d="M28.3620044,13.6512906 C27.3621106,13.6512906 26.4221106,14.040234 25.715031,14.7454792 C25.0079513,15.4511396 24.6186416,16.3892528 24.6186416,17.3871396 C24.6186416,18.3850264 25.0079513,19.3231396 25.715031,20.0288 C27.1749425,21.485366 29.5494823,21.485366 31.0089779,20.0288 C31.7156416,19.3231396 32.1053673,18.3850264 32.1053673,17.3871396 C32.1053673,16.3892528 31.7156416,15.4511396 31.0089779,14.7454792 C30.3018982,14.040234 29.3618982,13.6512906 28.3620044,13.6512906 M28.3620044,22.7808755 C26.9773761,22.7808755 25.5927478,22.2549509 24.5387832,21.2026868 C23.5172611,20.1836302 22.9549248,18.8287623 22.9549248,17.3871396 C22.9549248,15.9459321 23.5172611,14.5906491 24.5387832,13.5715925 C25.5598894,12.5525358 26.9174823,11.9909132 28.3620044,11.9909132 C29.8061106,11.9909132 31.1641195,12.5525358 32.1852257,13.5715925 C33.2063319,14.5906491 33.7690841,15.9459321 33.7690841,17.3871396 C33.7690841,18.8287623 33.2063319,20.1836302 32.1852257,21.2026868 C31.1312611,22.2549509 29.7466327,22.7808755 28.3620044,22.7808755" id="Fill-66" fill="#2D3666"></path>
                <path d="M38.2654035,30.7843925 L38.2441912,30.848317 C38.2030142,30.9720151 38.1048549,31.0695623 37.9813239,31.1106566 L37.9172708,31.1322415 L37.9813239,31.1534113 C38.1048549,31.1949208 38.2030142,31.2924679 38.2441912,31.416166 L38.2654035,31.4800906 L38.2870319,31.416166 C38.3282088,31.2924679 38.4259522,31.1949208 38.5498991,31.1534113 L38.6139522,31.1322415 L38.5498991,31.1106566 C38.4259522,31.0695623 38.3282088,30.9720151 38.2870319,30.848317 L38.2654035,30.7843925" id="Fill-68" fill="#9AE0E6"></path>
                <path d="M38.2656115,29.0567698 C38.0859301,29.0567698 37.9274611,29.1705057 37.8708947,29.3402792 L37.5206823,30.3888075 L36.4704611,30.738317 C36.2995142,30.7951849 36.1859655,30.9529208 36.1859655,31.1322415 C36.1859655,31.3115623 36.2999301,31.4692981 36.4704611,31.5257509 L37.5206823,31.8756755 L37.8708947,32.9237887 C37.9274611,33.0939774 38.0859301,33.2077132 38.2656115,33.2077132 C38.4452929,33.2077132 38.603346,33.0939774 38.6599124,32.9237887 L39.0101248,31.8756755 L40.0607619,31.5257509 C40.2312929,31.4692981 40.3452575,31.3115623 40.3452575,31.1322415 C40.3452575,30.9529208 40.2312929,30.7951849 40.0607619,30.738317 L39.0101248,30.3888075 L38.6599124,29.3402792 C38.603346,29.1705057 38.4452929,29.0567698 38.2656115,29.0567698 M38.2439832,30.848317 L38.2656115,30.7843925 L38.2868239,30.848317 C38.3280009,30.9720151 38.4261602,31.0695623 38.5496912,31.1110717 L38.6137442,31.1322415 L38.5496912,31.1534113 C38.4261602,31.1949208 38.3280009,31.2924679 38.2868239,31.416166 L38.2656115,31.4800906 L38.2439832,31.416166 C38.2028062,31.2924679 38.1050628,31.1949208 37.9811159,31.1534113 L37.9170628,31.1322415 L37.9811159,31.1110717 C38.1050628,31.0695623 38.2028062,30.9720151 38.2439832,30.848317" id="Fill-70" fill="#9AE0E6"></path>
                <path d="M41.1769496,22.4152604 C40.7177637,22.4152604 40.3450912,22.7867698 40.3450912,23.2454491 C40.3450912,23.7037132 40.7177637,24.0756377 41.1769496,24.0756377 C41.6365513,24.0756377 42.008808,23.7037132 42.008808,23.2454491 C42.008808,22.7867698 41.6365513,22.4152604 41.1769496,22.4152604" id="Fill-72" fill="#9AE0E6"></path>
                <path d="M31.1946903,38.1886377 C30.7355044,38.1886377 30.3628319,38.5601472 30.3628319,39.0188264 C30.3628319,39.4770906 30.7355044,39.8490151 31.1946903,39.8490151 C31.6538761,39.8490151 32.0265487,39.4770906 32.0265487,39.0188264 C32.0265487,38.5601472 31.6538761,38.1886377 31.1946903,38.1886377" id="Fill-74" fill="#9AE0E6"></path>
                <path d="M45.3362,15.4163547 C45.324554,15.4292226 45.312492,15.4416755 45.2991823,15.4532981 C45.312492,15.4649208 45.324554,15.4769585 45.3362,15.4902415 C45.347846,15.4769585 45.359908,15.4649208 45.3732177,15.4532981 C45.359908,15.4416755 45.347846,15.4292226 45.3362,15.4163547" id="Fill-76" fill="#9AE0E6"></path>
                <path d="M45.3363248,13.7930868 C45.1566434,13.7930868 44.9981743,13.9068226 44.941608,14.0765962 L44.6953779,14.8138038 L43.9566876,15.0595396 C43.7865726,15.1159925 43.672608,15.2741434 43.672608,15.4534642 C43.672608,15.6327849 43.7865726,15.7905208 43.9566876,15.8469736 L44.6953779,16.0927094 L44.941608,16.829917 C44.9981743,17.0001057 45.1566434,17.1138415 45.3363248,17.1138415 C45.5160062,17.1138415 45.6740593,17.0001057 45.7306257,16.829917 L45.9768558,16.0927094 L46.715546,15.8469736 C46.886077,15.7905208 47.0000416,15.6327849 47.0000416,15.4534642 C47.0000416,15.2741434 46.886077,15.1159925 46.715546,15.0595396 L45.9768558,14.8138038 L45.7306257,14.0765962 C45.6740593,13.9068226 45.5160062,13.7930868 45.3363248,13.7930868 M45.2993071,15.4534642 C45.3122009,15.4418415 45.3246788,15.4293887 45.3363248,15.4165208 C45.3479708,15.4293887 45.3600327,15.4418415 45.3733425,15.4534642 C45.3600327,15.4646717 45.3479708,15.4771245 45.3363248,15.4904075 C45.3246788,15.4771245 45.3122009,15.4646717 45.2993071,15.4534642" id="Fill-78" fill="#9AE0E6"></path>
                <path d="M12.8938053,4.15090189 C12.4342035,4.15090189 12.0619469,4.52241132 12.0619469,4.98109057 C12.0619469,5.43935472 12.4342035,5.81127925 12.8938053,5.81127925 C13.3529912,5.81127925 13.7256637,5.43935472 13.7256637,4.98109057 C13.7256637,4.52241132 13.3529912,4.15090189 12.8938053,4.15090189" id="Fill-80" fill="#9AE0E6"></path>
                <path d="M9.56645487,12.9258717 C9.55480885,12.9387396 9.5427469,12.9511925 9.52943717,12.9628151 C9.5427469,12.9744377 9.55480885,12.9864755 9.56645487,12.9997585 C9.57810088,12.9864755 9.59016283,12.9744377 9.60347257,12.9628151 C9.59016283,12.9511925 9.57810088,12.9387396 9.56645487,12.9258717" id="Fill-82" fill="#9AE0E6"></path>
                <path d="M9.56657965,11.3024377 C9.38689823,11.3024377 9.2284292,11.4161736 9.17186283,11.5859472 L8.92563274,12.3231547 L8.18694248,12.5688906 C8.01682743,12.6253434 7.90286283,12.7834943 7.90286283,12.9628151 C7.90286283,13.1421358 8.01682743,13.2998717 8.18694248,13.3567396 L8.92563274,13.6020604 L9.17186283,14.3392679 C9.2284292,14.5094566 9.38689823,14.6231925 9.56657965,14.6231925 C9.74626106,14.6231925 9.90431416,14.5094566 9.96088053,14.3392679 L10.2071106,13.6020604 L10.9458009,13.3567396 C11.1163319,13.2998717 11.2302965,13.1421358 11.2302965,12.9628151 C11.2302965,12.7834943 11.1163319,12.6253434 10.9458009,12.5688906 L10.2071106,12.3231547 L9.96088053,11.5859472 C9.90431416,11.4161736 9.74626106,11.3024377 9.56657965,11.3024377 M9.52956195,12.9628151 C9.54245575,12.9511925 9.55493363,12.9387396 9.56657965,12.9258717 C9.57780973,12.9387396 9.59028761,12.9511925 9.60359735,12.9628151 C9.59028761,12.9744377 9.57780973,12.9864755 9.56657965,12.9997585 C9.55493363,12.9864755 9.54245575,12.9744377 9.52956195,12.9628151" id="Fill-84" fill="#9AE0E6"></path>
                <path d="M0.831941593,31.6420189 C0.372339823,31.6420189 8.31858407e-05,32.0139434 8.31858407e-05,32.4722075 C8.31858407e-05,32.9304717 0.372339823,33.3023962 0.831941593,33.3023962 C1.29112743,33.3023962 1.6638,32.9304717 1.6638,32.4722075 C1.6638,32.0139434 1.29112743,31.6420189 0.831941593,31.6420189" id="Fill-86" fill="#9AE0E6"></path>
                <path d="M24.9558354,1.72783019 L24.934623,1.79175472 C24.8930301,1.91545283 24.7952867,2.013 24.6717558,2.05409434 L24.6072867,2.07567925 L24.6717558,2.09684906 C24.7952867,2.1379434 24.8930301,2.23549057 24.934623,2.35918868 L24.9558354,2.42311321 L24.9770478,2.35918868 C25.0186407,2.23549057 25.1163841,2.1379434 25.240331,2.09684906 L25.3043841,2.07567925 L25.240331,2.05409434 C25.1163841,2.013 25.0186407,1.91545283 24.9770478,1.79175472 L24.9558354,1.72783019" id="Fill-88" fill="#9AE0E6"></path>
                <path d="M24.9558354,-4.1509434e-05 C24.776154,-4.1509434e-05 24.6181009,0.11369434 24.5615345,0.283883019 L24.2109062,1.33241132 L23.160685,1.68150566 C22.990154,1.73837358 22.8761894,1.89610943 22.8761894,2.07543019 C22.8761894,2.25475094 22.990154,2.41248679 23.160685,2.46935472 L24.2113221,2.81886415 L24.5615345,3.86697736 C24.6181009,4.03716604 24.776154,4.15090189 24.9558354,4.15090189 C25.1355168,4.15090189 25.2935699,4.03716604 25.3505522,3.86697736 L25.7007646,2.81886415 L26.7509858,2.46935472 C26.9215168,2.41248679 27.0354814,2.25475094 27.0354814,2.07543019 C27.0354814,1.89610943 26.9215168,1.73837358 26.7509858,1.68150566 L25.7003487,1.33199623 L25.3505522,0.283883019 C25.2935699,0.11369434 25.1355168,-4.1509434e-05 24.9558354,-4.1509434e-05 M24.934623,1.79150566 L24.9558354,1.72799623 L24.9770478,1.79150566 C25.0186407,1.91520377 25.1163841,2.01316604 25.240331,2.05426038 L25.3043841,2.07543019 L25.240331,2.09701509 C25.1163841,2.13810943 25.0186407,2.2356566 24.9770478,2.35935472 L24.9558354,2.42327925 L24.934623,2.35935472 C24.8930301,2.2356566 24.7952867,2.13810943 24.6717558,2.09701509 L24.6072867,2.07543019 L24.6717558,2.05426038 C24.7952867,2.01316604 24.8930301,1.91520377 24.934623,1.79150566" id="Fill-90" fill="#9AE0E6"></path>
                <path d="M38.2654035,0.094890566 C37.8062177,0.094890566 37.4335451,0.4664 37.4335451,0.925079245 C37.4335451,1.3833434 37.8062177,1.75526792 38.2654035,1.75526792 C38.7250053,1.75526792 39.0972619,1.3833434 39.0972619,0.925079245 C39.0972619,0.4664 38.7250053,0.094890566 38.2654035,0.094890566" id="Fill-92" fill="#9AE0E6"></path>
            </g>
        </g>
    </g>
</svg>