<svg width="16" height="13" xmlns="http://www.w3.org/2000/svg">
  <path d="M1.8973333 2.591333c.02-.196666-.0553333-.390666-.202-.522666L.202.268667V0h4.6386667L8.426 7.863333 11.578 0H16v.268667l-1.2773333 1.224666c-.11.084-.1646667.222-.142.358667v8.998667c-.0226667.136.032.274.142.358L15.97 12.433333V12.702H9.6953333v-.268667L10.988 11.178667c.1266667-.126667.1266667-.164.1266667-.358V3.547333L7.522 12.672667h-.4853333L2.8533333 3.547333v6.116c-.0346666.256667.0506667.516.2313334.701334l1.6806666 2.038666v.269334H0v-.269334l1.6806667-2.038666c.18-.186.26-.446667.2166666-.701334v-7.072z" fill="#666" fill-rule="evenodd"/>
</svg>