<svg width="16" height="16" xmlns="http://www.w3.org/2000/svg">
  <path d="M8 0C3.582667 0 0 3.582 0 8c0 3.534667 2.292 6.533333 5.471333 7.591333.399334.074.528667-.174.528667-.384666v-1.489334c-2.225333.484-2.688667-.944-2.688667-.944-.364-.924666-.888666-1.170666-.888666-1.170666-.726-.496667.055333-.486.055333-.486.803333.056 1.226.824666 1.226.824666.713333 1.222667 1.871333.869334 2.328.664667.071333-.516667.278667-.87.508-1.069333-1.776667-.203334-3.644667-.889334-3.644667-3.954 0-.874.312667-1.587334.824-2.147334-.082666-.202-.356666-1.016.078-2.117333 0 0 .672-.214667 2.200667.82.638-.177333 1.322-.266 2.002-.269333.68.003333 1.364667.092 2.004.269333 1.527333-1.034667 2.198-.82 2.198-.82.435333 1.102.161333 1.916.078667 2.117333.513333.56.823333 1.274.823333 2.147334 0 3.072666-1.871333 3.749333-3.652667 3.947333C9.738 11.778 10 12.264667 10 13.011333v2.195334c0 .212666.128.462666.534.384C13.710667 14.531333 16 11.533333 16 8c0-4.418-3.582-8-8-8z" fill="#666" fill-rule="evenodd"/>
</svg>