<svg width="16" height="13" xmlns="http://www.w3.org/2000/svg">
  <path d="M16 1.539333c-.5886667.261334-1.2213333.437334-1.8853333.516667.678-.406 1.1986666-1.049333 1.4433333-1.816-.634.376-1.3366667.649333-2.0846667.796667-.598-.638-1.452-1.036667-2.396-1.036667-2.1193333 0-3.6766666 1.977333-3.198 4.03C5.152 3.893333 2.7333333 2.586667 1.114.600667.254 2.076.668 4.006 2.1293333 4.983333c-.5373333-.017333-1.044-.164666-1.486-.410666-.036 1.520666 1.054 2.943333 2.6326667 3.26-.462.125333-.968.154666-1.4826667.056C2.2106667 9.192667 3.4226667 10.141333 4.86 10.168 3.48 11.25 1.7413333 11.733333 0 11.528c1.4526667.931333 3.1786667 1.474667 5.032 1.474667 6.0946667 0 9.538-5.147334 9.33-9.764.6413333-.463334 1.198-1.041334 1.638-1.699334z" fill="#666" fill-rule="evenodd"/>
</svg>